<?xml version="1.0" standalone="no"?>
<!DOCTYPE svg PUBLIC "-//W3C//DTD SVG 20010904//EN"
 "http://www.w3.org/TR/2001/REC-SVG-20010904/DTD/svg10.dtd">
<svg version="1.0" xmlns="http://www.w3.org/2000/svg"
 width="2200.000000pt" height="2200.000000pt" viewBox="0 0 2200.000000 2200.000000"
 preserveAspectRatio="xMidYMid meet">
<metadata>
Created by potrace 1.11, written by Peter Selinger 2001-2013
</metadata>
<g transform="translate(0.000000,2200.000000) scale(0.100000,-0.100000)"
fill="#000000" stroke="none">
<path d="M0 11201 l0 -10799 37 -4 c50 -6 562 -1 588 5 36 10 59 22 130 68 78
52 103 81 131 154 17 45 19 78 18 330 0 272 -1 281 -23 330 -43 92 -141 260
-170 292 -16 17 -43 67 -61 110 -33 80 -72 203 -64 203 2 0 -2 14 -11 30 -9
17 -13 30 -10 30 3 0 1 8 -4 18 -6 11 -12 30 -14 43 -3 13 -10 42 -15 64 -6
22 -13 51 -16 65 -3 14 -13 57 -21 95 -9 39 -18 90 -21 115 -4 43 -8 75 -18
165 -7 58 -15 223 -21 440 -6 207 -12 317 -20 389 -3 25 -4 46 -1 46 2 0 29
-37 60 -82 30 -46 67 -96 81 -112 14 -16 25 -32 25 -35 0 -3 20 -28 45 -56 24
-27 45 -54 45 -58 0 -11 62 -90 78 -100 6 -4 12 -14 12 -21 0 -6 20 -34 45
-60 25 -27 45 -52 45 -57 0 -4 13 -20 28 -36 16 -15 31 -36 35 -45 3 -10 11
-18 17 -18 5 0 10 -7 10 -15 0 -7 6 -18 13 -22 7 -4 20 -19 29 -33 14 -22 27
-39 83 -102 8 -10 15 -20 14 -23 0 -3 35 -47 78 -98 43 -51 97 -117 121 -149
24 -31 50 -59 58 -62 8 -3 13 -9 12 -14 -2 -7 103 -136 182 -223 8 -9 37 -44
63 -78 27 -33 52 -61 57 -61 4 0 19 -17 33 -37 14 -21 36 -49 49 -63 13 -14
48 -52 77 -85 210 -236 273 -300 548 -565 172 -166 258 -246 322 -300 29 -25
59 -51 66 -58 8 -6 17 -12 22 -12 4 -1 26 -19 48 -40 22 -22 44 -40 48 -40 5
0 23 -14 41 -31 18 -16 44 -38 58 -47 13 -9 54 -36 89 -60 35 -23 72 -48 82
-55 11 -6 30 -21 43 -32 13 -11 40 -29 61 -40 21 -11 40 -22 43 -25 3 -4 64
-35 135 -70 72 -35 144 -70 160 -79 17 -8 30 -14 30 -12 0 1 13 -2 28 -8 16
-6 34 -11 41 -11 6 0 17 -5 22 -10 12 -12 280 -93 349 -106 269 -48 144 -45
1582 -41 730 1 1338 6 1350 9 12 4 62 10 110 13 150 11 149 11 221 50 100 54
97 44 97 367 0 216 -3 282 -12 285 -7 3 -13 13 -13 24 0 40 -46 49 -277 54
-259 6 -279 8 -369 39 -101 35 -144 55 -181 83 -18 14 -33 21 -33 17 0 -5 -4
-4 -8 2 -4 6 -27 24 -52 41 -51 36 -200 176 -200 189 0 5 -13 23 -28 39 -37
39 -198 285 -276 420 -16 27 -33 52 -38 53 -4 2 -8 9 -8 15 0 15 -151 265
-254 422 -47 71 -86 133 -86 137 0 11 8 10 92 -8 78 -17 103 -21 186 -30 29
-3 61 -7 72 -9 172 -33 1032 -19 1325 21 22 3 51 7 65 9 14 2 48 7 75 10 75
10 87 12 125 19 19 3 49 8 65 11 17 2 41 7 55 9 14 3 41 8 60 10 19 3 44 7 55
10 11 2 58 11 105 20 121 23 124 23 163 34 20 6 38 8 41 5 3 -3 12 -1 19 5 8
7 16 10 18 7 3 -2 25 2 49 9 25 8 48 14 53 14 16 1 124 25 197 43 25 6 54 13
66 15 11 2 56 13 100 24 43 12 91 23 106 25 15 2 46 9 70 16 24 7 50 14 58 15
29 6 336 85 383 99 26 8 47 12 47 9 0 -3 8 0 19 5 10 6 33 13 52 16 19 3 42 8
51 11 9 3 26 7 37 9 12 3 30 7 41 9 11 3 25 8 32 12 7 4 21 9 33 10 11 1 32 5
48 8 15 3 39 8 55 11 15 3 34 8 42 12 8 3 22 7 30 9 8 2 38 10 65 18 28 9 59
17 70 19 11 1 26 6 33 10 6 5 12 6 12 2 0 -3 8 -1 18 4 11 6 32 13 48 16 47
10 48 10 62 18 6 5 12 6 12 3 0 -3 18 1 40 9 22 8 42 14 45 14 3 0 30 8 61 17
31 9 64 18 73 19 9 2 16 4 16 5 0 1 8 3 18 6 9 2 25 6 35 8 9 3 17 5 17 6 0 2
15 6 55 15 14 3 70 19 125 36 55 16 113 32 128 35 15 3 52 14 82 24 30 10 55
17 55 14 0 -3 9 0 21 6 11 6 29 13 40 16 10 2 27 6 38 8 10 2 49 13 87 25 62
18 111 32 224 62 19 5 42 12 50 14 29 9 305 86 321 90 9 2 47 12 85 24 38 11
80 22 94 25 14 3 41 10 60 16 19 6 49 14 65 17 17 3 38 9 48 14 9 5 17 8 17 5
0 -3 15 0 33 5 17 6 39 12 48 14 21 4 226 53 259 62 14 3 32 7 40 8 8 1 29 5
45 8 17 4 46 9 65 12 19 4 53 10 75 15 62 13 112 19 209 25 63 3 112 13 170
34 102 37 158 55 171 56 17 0 22 60 20 291 -2 299 3 286 -155 365 -81 40 -124
63 -175 94 -22 13 -53 31 -70 40 -16 8 -48 26 -70 38 -22 13 -58 33 -80 45
-22 12 -53 31 -70 42 -16 10 -46 27 -65 37 -19 9 -57 30 -85 46 -106 63 -178
103 -239 135 -28 15 -55 30 -61 35 -12 9 -53 32 -145 77 -36 18 -73 39 -82 48
-10 8 -18 12 -18 8 0 -4 -12 1 -27 12 -27 18 -383 195 -413 205 -8 2 -19 5
-24 5 -5 0 -12 4 -15 9 -7 10 -42 27 -218 104 -27 11 -61 26 -78 34 -16 7 -73
30 -125 50 -52 20 -106 42 -120 47 -14 6 -29 13 -35 14 -21 7 -141 52 -166 62
-14 5 -72 25 -130 42 -57 18 -111 35 -119 38 -18 6 -12 4 -84 26 -32 10 -66
20 -75 21 -9 2 -17 4 -18 5 -2 2 -6 3 -10 4 -5 2 -28 8 -53 15 -25 7 -53 15
-63 17 -10 2 -26 5 -35 8 -9 3 -28 8 -42 10 -14 3 -45 10 -70 16 -25 5 -56 12
-70 15 -14 3 -38 8 -55 10 -16 3 -37 8 -45 10 -16 5 -69 14 -110 20 -14 2 -38
6 -55 9 -68 12 -168 27 -205 31 -14 1 -54 6 -90 10 -70 9 -71 9 -300 21 -264
14 -936 8 -1165 -11 -22 -1 -83 -6 -135 -9 -52 -4 -111 -9 -130 -11 -19 -2
-64 -6 -100 -10 -36 -3 -76 -8 -90 -10 -14 -2 -54 -6 -90 -10 -36 -4 -76 -8
-90 -10 -14 -2 -44 -6 -67 -9 -24 -3 -60 -8 -82 -11 -21 -3 -56 -7 -77 -10
-21 -2 -53 -6 -70 -9 -18 -3 -52 -8 -75 -11 -24 -3 -84 -12 -134 -20 -49 -8
-107 -17 -129 -21 -21 -3 -47 -7 -56 -9 -10 -2 -40 -7 -67 -11 -26 -3 -57 -8
-68 -11 -11 -2 -36 -6 -55 -9 -19 -2 -42 -6 -50 -9 -8 -2 -30 -7 -48 -10 -18
-3 -61 -12 -95 -21 -34 -8 -75 -17 -92 -20 -16 -2 -50 -9 -75 -14 -25 -5 -58
-12 -75 -14 -16 -3 -84 -17 -150 -30 -66 -14 -133 -27 -150 -30 -16 -3 -41 -8
-55 -11 -14 -3 -41 -8 -60 -11 -19 -3 -60 -12 -90 -19 -30 -8 -68 -16 -85 -18
-16 -3 -62 -12 -100 -21 -39 -8 -82 -17 -95 -20 -121 -26 -284 -66 -322 -79
-26 -9 -62 -19 -80 -22 -18 -3 -46 -10 -63 -15 -16 -5 -43 -11 -60 -14 -16 -2
-66 -14 -110 -25 -110 -27 -378 -93 -390 -95 -5 -1 -16 -5 -23 -10 -8 -4 -39
-15 -70 -22 -31 -8 -64 -16 -72 -18 -8 -3 -35 -9 -60 -15 -72 -18 -74 -19
-105 -31 -16 -6 -31 -11 -33 -10 -5 3 -117 -22 -142 -31 -14 -5 -34 -11 -45
-13 -11 -2 -49 -12 -85 -21 -36 -9 -75 -19 -88 -21 -13 -3 -42 -11 -65 -19
-23 -8 -54 -16 -69 -19 -15 -2 -31 -7 -36 -10 -5 -3 -19 -7 -33 -10 -13 -3
-51 -12 -84 -21 -33 -9 -64 -18 -70 -19 -33 -8 -135 -40 -163 -52 -18 -8 -39
-14 -47 -14 -8 0 -34 -6 -57 -14 -24 -8 -59 -17 -78 -20 -19 -3 -51 -10 -70
-16 -19 -6 -46 -14 -60 -17 -38 -8 -41 -9 -101 -27 -31 -9 -67 -19 -80 -21
-13 -3 -35 -9 -49 -14 -29 -10 -126 -39 -155 -46 -38 -9 -361 -103 -435 -128
-41 -14 -88 -28 -104 -31 -26 -6 -28 -5 -17 8 8 9 18 16 24 16 6 0 18 6 26 13
15 12 154 62 181 65 3 0 19 6 35 12 17 7 37 13 45 15 8 3 40 11 70 19 30 8 56
13 58 11 3 -2 17 4 32 15 15 11 45 23 66 26 22 3 47 10 57 16 11 5 31 11 45
12 15 1 36 7 47 13 11 6 34 13 50 17 58 12 71 16 180 46 121 34 137 38 162 44
10 2 53 14 96 26 43 12 91 23 105 24 15 1 43 7 62 14 19 6 52 13 73 15 21 3
44 12 50 20 7 8 23 17 37 20 45 9 71 16 93 23 12 4 29 8 37 9 47 6 187 38 196
46 7 5 44 16 84 25 40 8 81 19 91 25 11 5 19 7 19 3 0 -3 6 -2 13 5 8 6 35 13
62 16 27 4 56 10 64 15 9 4 19 8 24 8 26 0 77 14 77 22 0 6 3 9 8 8 12 -3 94
23 116 37 19 11 36 17 96 30 49 11 177 46 190 52 18 8 15 7 70 21 25 7 53 17
62 22 9 5 31 12 49 15 18 3 36 8 41 11 5 3 23 8 39 11 17 2 49 11 72 20 23 8
56 17 72 20 17 3 48 11 70 18 22 7 55 16 73 20 17 4 32 13 32 20 0 11 42 28
65 26 2 0 24 7 47 15 24 9 50 17 58 19 8 2 46 15 84 30 39 14 81 28 95 31 14
3 37 7 50 10 13 3 40 13 60 23 31 16 91 35 99 32 1 -1 16 6 33 15 17 8 38 17
47 19 61 15 136 38 189 59 33 14 76 28 94 31 19 3 37 11 40 17 4 6 17 13 30
15 12 2 27 7 33 12 6 4 54 23 106 41 52 17 111 39 130 47 57 24 71 30 160 63
47 18 90 33 95 34 6 1 21 8 35 16 31 18 90 41 111 44 8 1 32 13 53 26 21 13
50 24 63 25 13 0 28 6 32 13 8 13 92 45 99 37 3 -2 17 4 31 14 14 10 31 20 36
21 6 1 44 17 85 37 41 19 80 36 86 37 7 1 19 8 27 15 9 7 26 13 39 15 14 1 34
12 46 24 12 12 30 22 41 22 10 0 24 7 31 15 7 8 16 12 21 9 5 -3 9 -1 9 5 0 5
13 12 29 16 15 3 38 15 50 26 11 11 21 17 21 14 0 -3 27 9 60 27 33 17 60 36
60 41 0 4 5 5 10 2 6 -3 10 -2 10 3 0 9 78 46 93 43 4 0 7 3 7 9 0 5 19 19 43
31 23 12 49 27 57 34 8 7 31 21 50 32 56 30 214 135 227 150 6 8 13 13 15 12
6 -5 88 53 88 62 0 5 3 8 8 7 7 -3 28 12 171 125 212 169 384 340 555 552 115
143 140 176 243 324 70 101 87 127 109 166 9 17 37 62 62 100 25 39 45 76 45
83 0 6 6 12 14 12 7 0 13 3 14 8 3 35 14 61 44 106 19 29 35 59 35 66 0 7 12
28 26 47 14 19 27 40 28 47 1 6 12 30 26 51 35 59 60 104 60 110 -1 3 31 71
70 151 39 81 72 152 73 158 1 6 7 15 14 21 14 12 64 135 55 135 -4 0 -1 4 6 8
7 5 14 18 16 29 2 11 14 37 25 59 12 21 21 46 21 56 0 9 4 18 10 20 5 2 11 12
13 23 2 11 11 38 21 60 10 22 24 58 33 80 8 22 21 54 28 70 26 60 39 90 39 95
2 10 29 76 52 127 13 28 24 58 24 65 0 7 9 30 20 51 11 20 20 44 20 52 0 8 4
23 10 33 5 9 18 42 29 72 11 30 28 80 39 110 17 46 25 73 37 120 0 3 8 19 17
35 9 17 18 44 21 61 3 17 12 44 20 60 14 27 32 84 40 129 2 11 9 31 14 45 8
20 31 85 68 198 3 7 5 14 5 17 0 3 6 21 14 40 8 19 12 35 9 35 -3 0 -1 6 5 13
9 10 26 68 36 122 1 6 5 16 9 23 5 6 5 17 2 22 -3 6 -1 10 4 10 6 0 11 4 11 9
0 5 5 22 12 38 6 15 13 35 14 43 2 8 5 26 7 40 2 14 8 33 11 42 4 9 9 22 10
30 2 7 6 20 9 28 23 63 39 123 41 153 0 9 3 17 7 17 6 0 25 63 33 110 1 8 8
25 14 38 7 12 11 22 8 22 -3 0 4 25 15 57 10 31 17 59 14 61 -3 3 2 14 12 24
9 10 13 18 10 18 -3 0 0 21 8 48 8 26 16 58 19 72 3 14 12 50 21 80 22 76 26
93 29 110 2 8 8 27 14 41 6 14 14 48 18 75 9 57 9 54 18 76 4 9 9 22 10 30 1
7 7 22 13 33 9 18 20 64 28 120 2 11 11 40 19 64 9 25 19 57 21 72 3 15 16 70
30 121 14 51 25 94 25 95 1 2 8 19 16 39 8 19 14 43 12 52 -1 10 1 23 5 30 5
7 10 24 13 38 3 14 11 45 19 69 9 24 14 47 13 52 -1 4 3 18 11 31 7 13 10 28
8 35 -2 7 -1 19 4 28 10 19 50 165 53 194 1 11 8 31 15 43 7 13 14 36 15 50 1
15 5 33 10 40 4 7 10 28 13 45 3 18 12 50 20 72 8 22 16 47 17 55 2 8 8 28 15
43 6 16 11 32 11 37 0 13 29 102 39 120 4 8 20 56 36 105 15 50 32 95 36 101
5 6 10 19 12 30 4 19 21 63 38 96 4 9 18 44 29 78 11 34 34 90 51 126 17 35
28 68 25 73 -4 5 -2 11 4 13 6 2 12 14 15 27 2 12 10 29 16 37 8 10 12 89 14
262 2 315 0 332 -33 357 -25 19 -43 20 -284 20 l-258 0 -26 -28 c-14 -15 -27
-36 -29 -46 -5 -26 -134 -300 -146 -311 -3 -3 -13 -25 -23 -50 -10 -25 -33
-66 -52 -92 -18 -26 -36 -59 -40 -73 -3 -14 -10 -25 -15 -25 -5 0 -9 -4 -9
-10 0 -5 -8 -19 -17 -29 -10 -10 -29 -35 -43 -56 -14 -20 -31 -43 -39 -51 -30
-33 -71 -100 -71 -116 0 -10 -4 -18 -9 -18 -5 0 -16 -19 -26 -42 -9 -24 -24
-51 -32 -60 -9 -10 -12 -18 -8 -18 4 0 1 -8 -7 -17 -8 -10 -30 -51 -49 -90
-19 -40 -37 -73 -41 -73 -5 0 -8 -7 -8 -15 0 -18 -49 -115 -59 -115 -3 0 -12
-14 -19 -30 -8 -17 -19 -36 -26 -43 -6 -6 -17 -23 -24 -37 -19 -39 -111 -171
-132 -190 -3 -3 -24 -30 -47 -61 -23 -31 -48 -63 -57 -72 -9 -8 -16 -19 -16
-22 0 -4 -11 -16 -25 -27 -14 -11 -25 -23 -25 -27 0 -12 -276 -291 -288 -291
-6 0 -14 -9 -17 -20 -9 -28 -141 -156 -176 -172 -16 -7 -32 -21 -35 -30 -3
-10 -8 -18 -12 -18 -4 0 -23 -14 -42 -31 -19 -17 -52 -45 -74 -63 -21 -17 -46
-38 -55 -47 -9 -8 -32 -26 -51 -39 -19 -13 -48 -37 -64 -52 -17 -15 -34 -28
-38 -28 -5 0 -25 -16 -45 -35 -20 -19 -42 -35 -49 -35 -7 0 -28 -14 -46 -30
-18 -17 -45 -36 -61 -43 -15 -6 -30 -20 -33 -29 -3 -10 -8 -18 -12 -18 -11 0
-177 -120 -180 -131 -2 -5 -12 -9 -23 -9 -10 0 -19 -3 -19 -8 0 -4 -16 -16
-35 -26 -19 -11 -35 -22 -35 -26 0 -4 -14 -13 -31 -20 -29 -13 -46 -25 -106
-77 -14 -12 -34 -25 -44 -28 -11 -4 -19 -10 -19 -15 0 -4 -12 -11 -27 -14 -14
-4 -35 -18 -45 -32 -11 -13 -25 -24 -32 -24 -7 0 -21 -9 -31 -20 -10 -11 -24
-20 -31 -20 -7 0 -25 -11 -40 -25 -15 -14 -32 -25 -39 -25 -7 0 -20 -9 -30
-20 -10 -11 -22 -20 -28 -20 -8 0 -20 -10 -77 -61 -9 -9 -30 -19 -46 -23 -16
-4 -48 -23 -71 -42 -23 -19 -44 -34 -47 -34 -4 0 -32 -18 -64 -39 -31 -22 -70
-45 -87 -53 -16 -7 -34 -16 -40 -20 -15 -12 -98 -77 -112 -88 -6 -5 -23 -12
-37 -16 -14 -3 -26 -9 -26 -13 0 -4 -23 -18 -50 -31 -28 -13 -50 -26 -50 -30
0 -9 -57 -41 -81 -45 -12 -3 -27 -13 -35 -23 -7 -10 -41 -33 -76 -51 -75 -39
-101 -54 -108 -62 -7 -9 -94 -53 -98 -50 -2 2 -16 -8 -30 -21 -27 -25 -91 -58
-110 -58 -6 0 -23 -11 -39 -24 -15 -13 -68 -45 -118 -71 -49 -26 -115 -63
-146 -81 -31 -19 -61 -34 -65 -34 -5 0 -27 -9 -49 -19 -22 -11 -59 -27 -82
-37 -24 -9 -43 -21 -43 -25 0 -8 -66 -41 -140 -69 -19 -7 -42 -19 -50 -26 -8
-7 -28 -16 -45 -20 -45 -11 -111 -42 -124 -58 -7 -8 -26 -18 -42 -21 -16 -4
-31 -11 -34 -16 -4 -5 -17 -9 -30 -9 -13 0 -25 -4 -27 -8 -4 -11 -105 -58
-143 -68 -17 -4 -39 -13 -50 -20 -11 -7 -40 -18 -65 -25 -25 -7 -50 -19 -56
-26 -7 -8 -25 -16 -40 -19 -16 -3 -36 -11 -44 -18 -8 -6 -40 -20 -70 -30 -30
-11 -63 -26 -73 -34 -10 -9 -25 -17 -34 -18 -9 -2 -30 -9 -47 -18 -128 -62
-226 -106 -251 -112 -16 -4 -37 -12 -45 -19 -17 -13 -52 -29 -61 -27 -4 1 -15
-8 -24 -18 -10 -11 -26 -20 -35 -20 -10 0 -23 -7 -30 -15 -7 -8 -20 -15 -30
-15 -10 0 -23 -6 -29 -14 -7 -8 -31 -24 -54 -35 -23 -12 -49 -25 -57 -30 -91
-55 -159 -91 -171 -91 -8 0 -20 -9 -27 -20 -7 -11 -18 -20 -26 -20 -20 0 -77
-31 -82 -45 -3 -7 -20 -19 -37 -26 -35 -14 -49 -24 -75 -52 -9 -9 -22 -17 -29
-17 -7 0 -13 -4 -13 -8 0 -5 -26 -22 -57 -38 -32 -16 -59 -32 -61 -36 -2 -5
-9 -8 -15 -8 -7 0 -23 -14 -36 -30 -13 -17 -29 -30 -37 -30 -8 0 -14 -4 -14
-9 0 -4 -27 -28 -60 -52 -33 -24 -60 -49 -60 -56 0 -7 -4 -13 -8 -13 -14 0
-97 -58 -97 -68 0 -16 -210 -212 -227 -212 -5 0 -7 -4 -3 -9 3 -6 -4 -15 -15
-21 -11 -6 -18 -15 -16 -19 3 -4 -22 -36 -54 -70 -33 -34 -60 -64 -60 -66 0
-10 -52 -79 -75 -101 -14 -13 -25 -27 -25 -32 0 -6 -15 -27 -34 -48 -19 -21
-45 -60 -58 -86 -13 -26 -26 -48 -30 -48 -4 0 -39 -48 -77 -107 -39 -60 -79
-118 -88 -130 -10 -12 -18 -26 -18 -31 0 -5 -12 -24 -27 -43 -16 -18 -28 -40
-28 -49 0 -9 -9 -28 -20 -40 -12 -13 -29 -42 -39 -65 -10 -22 -26 -47 -35 -55
-17 -13 -17 -12 -1 25 10 22 22 54 28 70 6 17 16 44 24 62 7 17 13 36 13 43 0
7 9 29 19 49 28 52 51 104 55 126 2 11 9 32 15 48 6 15 13 38 15 50 3 12 9 37
15 55 5 17 7 32 5 32 -3 0 2 7 11 16 9 9 14 22 11 30 -3 7 2 18 10 25 8 7 14
19 13 28 -1 9 3 29 10 45 6 16 9 31 6 34 -2 3 -1 10 4 16 6 7 12 24 15 39 2
15 7 30 10 35 3 5 8 23 11 42 3 18 13 46 21 62 9 16 13 36 11 43 -3 7 -1 17 3
21 5 5 12 25 14 44 7 43 11 60 20 81 4 9 8 27 10 40 1 13 8 34 15 47 6 12 9
22 5 22 -3 0 -1 6 5 14 7 8 11 20 10 28 -1 7 1 24 5 38 4 14 9 39 11 55 2 17
5 30 6 30 1 0 3 11 4 25 1 14 5 36 9 50 4 14 8 36 10 50 2 14 9 45 16 70 7 25
14 65 16 90 1 25 8 65 14 89 6 24 8 46 6 49 -3 2 -1 13 4 22 11 21 20 73 25
155 2 33 8 71 13 85 5 14 9 48 7 75 -1 28 2 58 7 67 4 9 11 52 14 95 3 43 8
94 10 113 3 19 7 78 9 130 3 52 7 111 10 130 8 50 17 407 18 735 1 369 -18
916 -38 1065 -2 19 -7 60 -10 90 -3 30 -8 69 -10 85 -2 17 -7 71 -10 120 -6
88 -11 135 -20 185 -6 33 -15 95 -20 145 -3 22 -7 51 -10 65 -6 31 -12 84 -20
170 -12 125 -14 140 -19 148 -3 5 -8 31 -11 58 -12 94 -17 129 -20 134 -1 3
-6 36 -10 75 -4 38 -8 72 -10 76 -6 9 -15 65 -20 122 -3 27 -7 57 -9 66 -3 9
-8 36 -11 60 -3 23 -7 46 -10 50 -2 4 -7 30 -10 57 -5 43 -8 59 -21 109 -1 6
-5 24 -8 40 -3 17 -8 39 -10 50 -2 11 -7 45 -11 75 -4 30 -9 64 -12 75 -2 11
-5 34 -7 51 -2 16 -6 39 -9 50 -4 10 -9 41 -11 68 -3 26 -9 53 -14 60 -5 6 -9
24 -10 39 -1 16 -8 54 -16 85 -8 32 -17 77 -20 102 -3 25 -12 68 -20 95 -8 28
-17 67 -20 89 -4 21 -8 41 -11 45 -2 4 -6 18 -9 32 -2 13 -11 58 -20 99 -8 41
-17 86 -20 100 -2 14 -10 48 -16 75 -6 28 -13 58 -15 68 -2 9 -7 22 -10 27 -3
5 -9 31 -12 57 -3 27 -11 57 -18 68 -6 11 -17 47 -23 80 -19 104 -23 118 -43
177 -10 31 -19 68 -19 81 0 14 -7 44 -16 68 -14 40 -48 156 -59 202 -2 10 -6
26 -9 35 -3 9 -7 28 -10 42 -8 40 -33 121 -55 179 -11 29 -22 68 -25 86 -3 18
-10 44 -15 57 -5 12 -21 64 -36 113 -15 50 -36 118 -46 151 -11 34 -22 75 -25
90 -2 16 -8 38 -13 49 -13 29 -58 174 -66 213 -4 18 -13 45 -21 60 -8 15 -14
32 -14 38 0 6 -7 29 -16 50 -9 22 -16 40 -16 41 1 2 -5 21 -14 44 -8 23 -12
44 -9 47 3 3 -1 15 -8 26 -7 12 -21 48 -31 81 -9 33 -23 74 -30 90 -7 17 -17
46 -21 65 -4 19 -11 40 -15 45 -4 6 -10 19 -13 30 -3 11 -15 52 -27 90 -12 39
-25 84 -30 100 -5 17 -16 50 -25 75 -9 25 -19 56 -22 70 -2 13 -7 27 -11 30
-4 3 -9 14 -10 25 -2 11 -13 45 -24 75 -10 30 -46 136 -79 235 -32 99 -61 186
-64 193 -2 7 -4 14 -5 17 0 3 -7 19 -15 35 -9 17 -14 30 -11 30 2 0 -9 39 -25
87 -16 47 -29 92 -29 100 0 7 -4 13 -10 13 -5 0 -10 9 -10 19 0 11 -12 52 -26
93 -14 40 -30 91 -36 113 -6 22 -16 43 -22 47 -6 4 -8 8 -3 8 4 0 0 15 -10 33
-9 17 -18 37 -19 42 -1 6 -4 21 -7 35 -3 14 -15 43 -26 66 -11 23 -22 52 -25
65 -8 41 -108 333 -117 345 -6 7 -9 16 -7 20 1 5 -3 18 -9 30 -7 11 -13 31
-15 45 -2 13 -6 29 -10 34 -3 6 -14 38 -23 73 -10 34 -21 62 -26 62 -4 0 -8 8
-8 18 1 16 -11 57 -47 162 -8 25 -16 52 -19 61 -2 9 -8 25 -14 35 -12 23 -122
366 -121 377 1 4 -5 18 -13 30 -8 13 -20 48 -27 80 -7 31 -17 57 -22 57 -5 0
-7 4 -4 8 3 5 -2 21 -9 36 -8 16 -13 31 -10 35 2 4 -3 20 -11 35 -7 16 -14 33
-14 39 0 10 -24 77 -51 142 -5 11 -16 45 -25 75 -9 30 -21 69 -27 85 -6 17
-12 35 -13 40 -9 48 -14 66 -27 91 -7 16 -20 50 -27 77 -7 26 -17 50 -21 53
-5 3 -9 13 -9 23 0 10 -8 25 -18 34 -16 15 -46 17 -215 17 l-197 0 0 -10799z
m2332 -3183 c-7 -7 -12 -8 -12 -2 0 14 12 26 19 19 2 -3 -1 -11 -7 -17z m-432
-836 c0 -5 -7 -17 -15 -28 -14 -18 -14 -17 -4 9 12 27 19 34 19 19z m-40 -77
c-7 -9 -15 -13 -18 -10 -3 2 1 11 8 20 7 9 15 13 18 10 3 -2 -1 -11 -8 -20z
m-30 -70 c0 -8 -7 -15 -16 -15 -14 0 -14 3 -4 15 7 8 14 15 16 15 2 0 4 -7 4
-15z m-27 -55 c-5 -21 -33 -49 -33 -33 0 9 29 53 35 53 2 0 1 -9 -2 -20z m-28
-60 c-3 -5 -11 -10 -16 -10 -6 0 -7 5 -4 10 3 6 11 10 16 10 6 0 7 -4 4 -10z
m-25 -41 c0 -5 -4 -9 -10 -9 -5 0 -10 7 -10 16 0 8 5 12 10 9 6 -3 10 -10 10
-16z m-42 -86 c-5 -21 -16 -45 -22 -53 -23 -27 -58 -95 -62 -118 -4 -22 -67
-146 -85 -168 -5 -6 -15 -28 -23 -50 -30 -83 -212 -454 -228 -465 -5 -3 -16
-28 -24 -54 -8 -27 -22 -57 -31 -67 -9 -10 -18 -28 -20 -38 -1 -11 -16 -41
-33 -68 -16 -27 -30 -55 -30 -63 -1 -8 -12 -32 -25 -54 -27 -43 -28 -46 -45
-85 -6 -14 -29 -56 -51 -95 -21 -38 -51 -96 -66 -127 -15 -32 -33 -60 -39 -62
-6 -2 1 22 17 55 16 33 29 65 29 72 0 7 5 18 12 25 6 6 13 21 15 33 2 11 9 27
17 35 8 7 20 31 26 51 7 21 16 43 21 49 5 6 5 14 1 18 -4 4 0 6 8 4 8 -2 15 4
16 12 0 8 9 31 19 50 11 19 18 38 17 43 -1 4 2 7 7 7 5 0 14 15 22 33 7 17 23
49 36 69 13 21 23 44 23 51 0 8 9 24 20 37 11 13 20 29 20 37 0 26 44 118 62
131 10 7 18 18 18 24 0 11 48 120 72 163 7 11 23 43 38 70 15 28 35 63 45 78
10 15 15 30 12 34 -4 3 3 17 13 31 11 13 20 29 20 34 0 5 8 18 18 29 11 11 25
39 31 62 7 23 23 58 35 77 13 19 28 52 35 72 7 21 17 40 22 44 5 3 16 21 24
40 19 45 26 43 13 -3z m-818 -1633 c-20 -28 -48 -53 -39 -34 3 5 11 21 19 37
7 15 20 27 27 27 11 0 9 -8 -7 -30z"/>
</g>
</svg>
